<svg id="Capa_1" enable-background="new 0 0 413.024 413.024" height="512" viewBox="0 0 413.024 413.024" width="512" xmlns="http://www.w3.org/2000/svg"><g><path d="m341.237 26.319-44.21 76.607c-5.703-3.118-11.809-5.435-18.145-6.885h-.023c.023-.622.046-1.22.046-1.842.001-3.763-.291-7.52-.875-11.237l40.341-69.838c3.643-6.314 11.716-8.479 18.03-4.836 6.315 3.645 8.48 11.717 4.836 18.031z" fill="#b28055"/><path d="m344.783 209.169c-4.214 25.858-8.42 51.724-12.618 77.598-2.303 14.046-4.597 28.099-6.885 42.16-3.191 19.692-6.393 39.39-9.604 59.096-1.738 10.668-10.953 18.503-21.762 18.502h-174.804c-10.809.001-20.024-7.834-21.762-18.502-3.208-19.698-6.409-39.397-9.604-59.096-2.303-14.046-4.598-28.099-6.885-42.16-4.191-25.858-8.397-51.724-12.618-77.598z" fill="#fdd5aa"/><path d="m46.939 174.63h319.145c2.443 0 4.423 1.98 4.423 4.423v25.692c0 2.443-1.98 4.423-4.423 4.423h-319.145c-2.443 0-4.423-1.98-4.423-4.423v-25.692c0-2.443 1.98-4.423 4.423-4.423z" fill="#b28055"/><path d="m332.165 286.766c-2.303 14.046-4.597 28.099-6.885 42.16h-66.637l-52.269 52.269-52.292-52.269h-66.338c-2.303-14.046-4.598-28.099-6.885-42.16h73.223l52.292-52.269 52.269 52.269z" fill="#b28055"/><path d="m222.838 166.594c.005 2.685-.141 5.368-.438 8.036h-143.935c-.297-2.668-.443-5.351-.438-8.036.006-33.711 23.27-62.96 56.114-70.552 5.348-1.223 10.816-1.84 16.302-1.842 39.257-.002 71.361 31.285 72.371 70.529.024.621.024 1.243.024 1.865z" fill="#e7ebef"/><path d="m334.997 166.594c.005 2.685-.141 5.368-.438 8.036h-112.159c.297-2.668.443-5.351.438-8.036 0-.622 0-1.243-.023-1.865-.391-16.051-6.129-31.513-16.302-43.934 13.734-16.852 34.329-26.62 56.068-26.595 5.486.002 10.954.619 16.302 1.842 32.844 7.592 56.108 36.841 56.114 70.552z" fill="#fb6169"/><path d="m278.906 94.2c-3.206-96.898-144.054-95.036-144.764 1.842 26.671-6.381 55.778 3.939 72.371 24.753 16.77-20.939 45.65-31.083 72.371-24.753.022-.599.022-1.22.022-1.842z" fill="#f7f073"/><path d="m297.022 109.428c-1.089 0-2.16-.274-3.114-.798-5.159-2.819-10.679-4.917-16.408-6.236-1.261-.272-2.413-.913-3.309-1.841-1.718-1.662-1.979-4.107-1.785-6.353 0-3.424-.266-6.844-.796-10.227-.231-1.469.048-2.973.792-4.261l40.342-69.838c2.6-4.533 6.906-7.837 11.958-9.175 16.888-4.51 30.882 13.7 22.166 28.867l-.001.002-44.21 76.607c-1.162 2.014-3.31 3.254-5.635 3.253zm-11.68-18.396c3.101.933 6.14 2.059 9.099 3.372l41.166-71.334c.891-1.538 1.13-3.369.664-5.084-1.424-5.694-9.42-6.735-12.268-1.614l-39.223 67.9c.284 2.238.471 4.497.562 6.76z"/><path d="m293.914 413.024h-174.804c-14.012.046-25.97-10.12-28.178-23.957-4.357-26.736-8.706-53.461-13.046-80.175-5.371-32.888-10.724-65.781-16.06-98.678-.553-3.572 1.894-6.916 5.466-7.469.314-.049.632-.074.95-.077h276.542c3.614.029 6.521 2.982 6.492 6.596-.003.318-.028.635-.077.95-9.705 59.628-19.407 119.245-29.107 178.853-2.208 13.837-14.166 24.003-28.178 23.957zm-218.028-197.356c9.29 57.106 18.583 114.209 27.877 171.31 1.203 7.535 7.716 13.072 15.347 13.046h174.804c7.631.026 14.144-5.511 15.346-13.047 9.288-57.117 18.581-114.22 27.878-171.309z"/><path d="m366.085 215.668h-319.146c-6.03-.007-10.916-4.893-10.923-10.923v-25.692c.007-6.03 4.893-10.916 10.923-10.923h319.146c6.03.007 10.916 4.893 10.923 10.923v25.692c-.007 6.03-4.893 10.916-10.923 10.923zm-317.069-13h314.992v-21.538h-314.992z"/><path d="m206.374 387.696c-1.724.002-3.378-.683-4.595-1.903l-50.388-50.366h-63.647c-3.184 0-5.899-2.306-6.415-5.448-1.151-7.025-2.299-14.054-3.443-21.086-1.145-7.027-2.292-14.051-3.441-21.074-.581-3.543 1.82-6.885 5.363-7.466.348-.057.7-.086 1.052-.086h70.531l50.388-50.366c2.538-2.538 6.654-2.537 9.191.001l50.365 50.365h70.83c3.59 0 6.5 2.91 6.5 6.5 0 .352-.029.704-.086 1.052-1.151 7.021-2.299 14.046-3.441 21.074-1.146 7.031-2.294 14.059-3.443 21.086-.515 3.142-3.231 5.448-6.414 5.448h-63.945l-50.365 50.365c-1.219 1.221-2.873 1.906-4.597 1.904zm-113.107-65.269h60.816c1.723 0 3.376.684 4.595 1.903l47.696 47.675 47.674-47.674c1.219-1.219 2.872-1.904 4.596-1.904h61.115c1.589-9.717 3.175-19.438 4.757-29.161h-65.872c-1.724 0-3.377-.685-4.596-1.904l-47.674-47.674-47.696 47.675c-1.219 1.218-2.872 1.903-4.595 1.903h-65.574c1.589 9.718 3.175 19.438 4.758 29.161z"/><path d="m222.4 181.13h-143.935c-3.307 0-6.087-2.484-6.459-5.77-.323-2.911-.483-5.837-.479-8.766-.538-42.79 36.189-79.481 78.917-78.893 46.234-.665 84.192 41.83 78.414 87.66-.371 3.286-3.151 5.769-6.458 5.769zm-137.857-13h131.779c1.575-35.988-29.872-68.175-65.879-67.429-36.514-.39-67.222 30.806-65.9 67.429z"/><path d="m334.56 181.13h-112.16c-3.613-.026-6.521-2.975-6.495-6.588.002-.215.014-.429.036-.642.327-2.964.453-5.946.377-8.926-.315-14.642-5.542-28.754-14.842-40.068-1.954-2.393-1.953-5.831.001-8.224 18.651-23.17 49.913-33.765 78.85-26.977 38.203 8.212 65.619 46.838 60.69 85.655-.37 3.287-3.15 5.77-6.457 5.77zm-105.236-13h99.157c1.475-60.123-72.308-90.234-113.574-47.032 9.738 13.719 14.793 30.212 14.417 47.032z"/><path d="m206.512 127.295c-1.951 0-3.799-.876-5.034-2.387-15.895-19.425-41.431-28.156-65.892-22.528-5.118 1.06-8.57-3.305-7.968-8.179.001-6.981.927-13.931 2.751-20.669.938-3.465 4.507-5.514 7.972-4.577s5.514 4.507 4.577 7.972c-1.007 3.718-1.687 7.516-2.033 11.352 24.226-2.965 48.459 5.455 65.627 22.803 17.169-17.348 41.403-25.768 65.63-22.802-3.096-41.705-47.577-70.861-87.35-56.315-3.389 1.183-7.096-.605-8.279-3.995s.605-7.096 3.995-8.279c8.359-2.921 17.15-4.411 26.005-4.407 44.23-.071 80.103 36.788 78.866 81.008-.138 3.587-3.157 6.384-6.744 6.246-.403-.015-.803-.068-1.196-.158-24.461-5.628-49.997 3.103-65.892 22.529-1.236 1.509-3.084 2.386-5.035 2.386z"/><path d="m160.146 44.746c0 3.59-2.91 6.5-6.5 6.5-8.604-.297-8.602-12.704 0-13 3.59 0 6.5 2.91 6.5 6.5z"/></g></svg>